<?xml version="1.0" encoding="UTF-8"?><svg id="Layer_1" xmlns="http://www.w3.org/2000/svg" viewBox="0 0 1282.74 174.94"><defs><style>.cls-1{fill:#fff;}</style></defs><rect class="cls-1" x="82.95" y="71.55" width="21.01" height="21.01" rx="2.97" ry="2.97"/><rect class="cls-1" x="111.65" y="71.55" width="21.01" height="21.01" rx="2.97" ry="2.97"/><rect class="cls-1" x="82.95" y="100.26" width="21.01" height="21.01" rx="2.97" ry="2.97"/><rect class="cls-1" x="111.65" y="100.26" width="21.01" height="21.01" rx="2.97" ry="2.97"/><path class="cls-1" d="M212.36,88.42l-.33.45c-3.37,4.51-9.76,5.44-14.27,2.08L107.19,23.39,16.61,90.95c-4.51,3.36-10.89,2.43-14.26-2.08l-.33-.45c-3.37-4.52-2.43-10.9,2.08-14.27L100.83,2.01C102.74.59,104.98-.06,107.2,0c2.21-.07,4.45.58,6.36,2.01l35.51,26.49V11.79c0-1.64,1.32-2.97,2.96-2.97h22.61c1.64,0,2.97,1.33,2.97,2.97v38l32.68,24.37c4.51,3.37,5.44,9.75,2.07,14.27Z"/><path class="cls-1" d="M197.14,120.03c-1.81-1.81-4.22-2.81-6.77-2.81-2.76,0-5.38,1.19-7.21,3.25-9.78,11.04-21.24,19.72-34.06,25.8-13.23,6.28-27.29,9.46-41.78,9.46-.58,0-1.18,0-1.77-.02-28.02-.51-54.19-12.91-73.68-34.92-.24-.27-.48-.54-.71-.82-1.83-2.1-4.47-3.32-7.27-3.32-2.56,0-4.96,1-6.78,2.81-3.56,3.56-3.76,9.32-.47,13.11.27.32.56.64.83.94,23.11,26.09,54.27,40.8,87.73,41.41.7.02,1.41.02,2.12.02,17.29,0,34.05-3.79,49.84-11.24,15.24-7.21,28.85-17.49,40.42-30.57,3.34-3.77,3.14-9.52-.44-13.11ZM195.93,120.65c-.32-.29-.65-.54-1-.77.35.22.68.48,1,.77ZM193.86,119.27c-.73-.33-1.51-.57-2.29-.68.79.11,1.56.33,2.29.68Z"/><path class="cls-1" d="M262.35,138.34l34.72-95.31h23.15l34.72,95.31h-21.38l-25.05-72.44-24.92,72.44h-21.24ZM277.46,117.51l5.31-15.8h49.97l5.17,15.8h-60.45Z"/><path class="cls-1" d="M349.61,86.6v-16.88h43.71v16.88h-43.71ZM358.87,138.34v-73.52c0-6.08,1.02-10.89,3.06-14.43,2.04-3.54,4.92-6.1,8.65-7.69,3.72-1.59,8.08-2.38,13.07-2.38h8.71v17.29h-5.72c-2.63,0-4.54.55-5.72,1.64-1.18,1.09-1.77,2.9-1.77,5.44v73.66h-20.29Z"/><path class="cls-1" d="M394.54,86.6v-16.88h43.71v16.88h-43.71ZM403.8,138.34v-73.52c0-6.08,1.02-10.89,3.06-14.43,2.04-3.54,4.92-6.1,8.65-7.69,3.72-1.59,8.08-2.38,13.07-2.38h8.71v17.29h-5.72c-2.63,0-4.54.55-5.72,1.64-1.18,1.09-1.77,2.9-1.77,5.44v73.66h-20.29Z"/><path class="cls-1" d="M474.71,139.98c-6.72,0-12.71-1.54-17.97-4.63-5.27-3.09-9.42-7.33-12.46-12.73-3.04-5.4-4.56-11.55-4.56-18.45s1.52-13.34,4.56-18.79c3.04-5.45,7.19-9.69,12.46-12.73,5.26-3.04,11.25-4.56,17.97-4.56s12.57,1.52,17.84,4.56c5.26,3.04,9.44,7.26,12.53,12.66,3.08,5.4,4.63,11.64,4.63,18.72s-1.54,13.18-4.63,18.58c-3.09,5.4-7.26,9.65-12.53,12.73-5.27,3.08-11.21,4.63-17.84,4.63ZM474.57,122.41c2.72,0,5.15-.68,7.28-2.04,2.13-1.36,3.86-3.42,5.17-6.19,1.31-2.77,1.97-6.15,1.97-10.14s-.66-7.49-1.97-10.21c-1.32-2.72-3.02-4.77-5.11-6.13-2.09-1.36-4.45-2.04-7.08-2.04-2.81,0-5.31.68-7.49,2.04-2.18,1.36-3.88,3.4-5.11,6.13-1.23,2.72-1.84,6.13-1.84,10.21s.63,7.38,1.91,10.14c1.27,2.77,2.95,4.83,5.04,6.19,2.09,1.36,4.49,2.04,7.22,2.04Z"/><path class="cls-1" d="M516.45,138.34v-68.62h17.97l1.77,12.53c1.81-2.9,3.95-5.4,6.4-7.49,2.45-2.09,5.29-3.72,8.51-4.9,3.22-1.18,6.74-1.77,10.55-1.77v21.51h-7.08c-2.54,0-4.92.3-7.15.88-2.23.59-4.15,1.57-5.79,2.93-1.63,1.36-2.86,3.22-3.68,5.58-.82,2.36-1.23,5.22-1.23,8.58v30.77h-20.29Z"/><path class="cls-1" d="M595.31,139.98c-6.17,0-11.71-1.54-16.61-4.63-4.9-3.09-8.76-7.35-11.57-12.8-2.81-5.45-4.22-11.62-4.22-18.52s1.43-12.96,4.29-18.45c2.86-5.49,6.78-9.78,11.78-12.87,4.99-3.09,10.62-4.63,16.88-4.63,4.81,0,8.96.84,12.46,2.52,3.49,1.68,6.33,4.06,8.51,7.15v-37.44h20.29v98.03h-17.97l-2.04-8.99c-1.36,1.91-3.04,3.68-5.04,5.31-2,1.64-4.36,2.93-7.08,3.88-2.72.95-5.95,1.43-9.67,1.43ZM600.62,122.28c3.36,0,6.31-.79,8.85-2.38,2.54-1.59,4.54-3.74,5.99-6.47,1.45-2.72,2.18-5.85,2.18-9.39s-.73-6.67-2.18-9.4c-1.45-2.72-3.47-4.88-6.06-6.47-2.59-1.59-5.51-2.38-8.78-2.38s-6.35.8-8.99,2.38c-2.63,1.59-4.65,3.74-6.06,6.47-1.41,2.72-2.11,5.81-2.11,9.26s.7,6.67,2.11,9.39c1.41,2.72,3.43,4.9,6.06,6.54,2.63,1.63,5.63,2.45,8.99,2.45Z"/><path class="cls-1" d="M669.12,139.98c-5.72,0-10.44-.93-14.16-2.79-3.72-1.86-6.49-4.36-8.31-7.49-1.82-3.13-2.72-6.6-2.72-10.41s1.04-7.58,3.13-10.76c2.09-3.18,5.31-5.67,9.67-7.49,4.36-1.81,9.89-2.72,16.61-2.72h16.47c0-3.08-.39-5.65-1.16-7.69-.77-2.04-2.02-3.58-3.74-4.63-1.73-1.04-4.13-1.57-7.22-1.57s-5.74.68-7.96,2.04c-2.23,1.36-3.61,3.4-4.15,6.13h-19.61c.54-4.9,2.18-9.17,4.9-12.8,2.72-3.63,6.42-6.49,11.1-8.58,4.67-2.09,9.96-3.13,15.86-3.13,6.54,0,12.23,1.07,17.09,3.2,4.85,2.13,8.6,5.24,11.23,9.33,2.63,4.08,3.95,9.17,3.95,15.25v42.48h-17.02l-2.31-9.94c-1,1.73-2.18,3.29-3.54,4.7-1.36,1.41-2.95,2.63-4.77,3.67-1.82,1.04-3.79,1.84-5.92,2.38-2.13.55-4.61.82-7.42.82ZM674.3,124.46c2.09,0,3.97-.34,5.65-1.02,1.68-.68,3.11-1.68,4.29-2.99,1.18-1.32,2.16-2.84,2.93-4.56.77-1.72,1.34-3.58,1.7-5.58v-.14h-13.21c-2.27,0-4.18.32-5.72.95-1.54.64-2.68,1.5-3.4,2.59-.73,1.09-1.09,2.36-1.09,3.81,0,1.54.39,2.84,1.16,3.88.77,1.04,1.81,1.82,3.13,2.31,1.31.5,2.84.75,4.56.75Z"/><path class="cls-1" d="M761,139.98c-3.54,0-6.65-.43-9.33-1.29-2.68-.86-5.04-2.02-7.08-3.47-2.04-1.45-3.79-3.18-5.24-5.17l-2.18,8.3h-17.97V40.31h20.29v38.4c2.09-3.09,4.88-5.63,8.37-7.63,3.49-1.99,7.78-2.99,12.87-2.99,6.17,0,11.75,1.56,16.75,4.7,4.99,3.13,8.94,7.4,11.85,12.8,2.9,5.4,4.36,11.55,4.36,18.45s-1.48,12.96-4.42,18.45c-2.95,5.49-6.85,9.78-11.71,12.87-4.86,3.08-10.37,4.63-16.54,4.63ZM755.69,122.28c3.36,0,6.31-.79,8.85-2.38,2.54-1.59,4.56-3.72,6.06-6.4,1.5-2.67,2.25-5.83,2.25-9.46s-.75-6.56-2.25-9.33c-1.5-2.77-3.52-4.95-6.06-6.53-2.54-1.59-5.49-2.38-8.85-2.38s-6.31.8-8.85,2.38c-2.54,1.59-4.54,3.77-5.99,6.53-1.45,2.77-2.18,5.88-2.18,9.33,0,3.63.73,6.81,2.18,9.53,1.45,2.72,3.45,4.86,5.99,6.4,2.54,1.54,5.49,2.31,8.85,2.31Z"/><path class="cls-1" d="M800.43,138.34V40.31h20.29v98.03h-20.29Z"/><path class="cls-1" d="M863.1,139.98c-7.08,0-13.28-1.48-18.59-4.42-5.31-2.95-9.46-7.08-12.46-12.39-2.99-5.31-4.49-11.41-4.49-18.31s1.45-13.52,4.36-19.06c2.9-5.54,7.06-9.87,12.46-13,5.4-3.13,11.59-4.7,18.59-4.7s13.05,1.48,18.18,4.42c5.13,2.95,9.17,7.01,12.12,12.19,2.95,5.17,4.43,11.12,4.43,17.84,0,.91-.02,1.93-.07,3.06-.05,1.14-.16,2.29-.34,3.47h-55.28v-11.85h35.27c-.36-3.9-1.84-7.01-4.43-9.33-2.59-2.31-5.83-3.47-9.73-3.47-2.91,0-5.56.66-7.97,1.98-2.41,1.32-4.27,3.36-5.58,6.13-1.32,2.77-1.97,6.29-1.97,10.55v3.95c0,3.18.61,6.01,1.84,8.51,1.23,2.5,3,4.45,5.31,5.86,2.32,1.41,5.01,2.11,8.1,2.11s5.63-.63,7.62-1.91c2-1.27,3.49-2.81,4.49-4.63h20.83c-1.36,4.27-3.56,8.15-6.6,11.64-3.04,3.5-6.79,6.26-11.23,8.3-4.45,2.04-9.4,3.06-14.84,3.06Z"/><path class="cls-1" d="M929.41,138.34V43.04h20.29v95.31h-20.29ZM947.11,97.9v-16.47h45.34v16.47h-45.34ZM989.32,138.34V43.04h20.29v95.31h-20.29Z"/><path class="cls-1" d="M1052.05,139.98c-6.72,0-12.71-1.54-17.97-4.63-5.27-3.09-9.42-7.33-12.46-12.73-3.04-5.4-4.56-11.55-4.56-18.45s1.52-13.34,4.56-18.79c3.04-5.45,7.19-9.69,12.46-12.73,5.26-3.04,11.26-4.56,17.97-4.56s12.57,1.52,17.84,4.56c5.26,3.04,9.44,7.26,12.53,12.66,3.09,5.4,4.63,11.64,4.63,18.72s-1.54,13.18-4.63,18.58c-3.09,5.4-7.26,9.65-12.53,12.73-5.27,3.08-11.21,4.63-17.84,4.63ZM1051.92,122.41c2.72,0,5.15-.68,7.29-2.04,2.13-1.36,3.86-3.42,5.17-6.19,1.31-2.77,1.97-6.15,1.97-10.14s-.66-7.49-1.97-10.21c-1.32-2.72-3.02-4.77-5.11-6.13-2.09-1.36-4.45-2.04-7.08-2.04-2.81,0-5.31.68-7.49,2.04-2.18,1.36-3.88,3.4-5.1,6.13-1.23,2.72-1.84,6.13-1.84,10.21s.63,7.38,1.91,10.14c1.27,2.77,2.95,4.83,5.04,6.19,2.09,1.36,4.49,2.04,7.22,2.04Z"/><path class="cls-1" d="M1093.8,138.34v-68.62h17.7l1.63,8.99c2.18-3.18,5.08-5.74,8.72-7.69,3.63-1.95,7.76-2.93,12.39-2.93,3.45,0,6.51.43,9.19,1.29,2.68.86,5.04,2.13,7.08,3.81,2.04,1.68,3.79,3.79,5.24,6.33,2.63-3.54,5.99-6.33,10.08-8.37,4.08-2.04,8.58-3.06,13.48-3.06,6.08,0,11.12,1.22,15.11,3.68,3.99,2.45,7.01,5.97,9.05,10.55,2.04,4.58,3.06,10.19,3.06,16.82v39.21h-20.15v-37.44c0-4.99-1.02-8.87-3.06-11.64-2.04-2.77-5.11-4.15-9.19-4.15-2.81,0-5.24.66-7.28,1.97-2.04,1.32-3.66,3.22-4.83,5.72-1.18,2.5-1.77,5.51-1.77,9.05v36.49h-20.15v-37.44c0-4.99-1-8.87-2.99-11.64-2-2.77-5.27-4.15-9.8-4.15-2.64,0-4.93.66-6.88,1.97-1.95,1.32-3.5,3.22-4.63,5.72-1.14,2.5-1.7,5.51-1.7,9.05v36.49h-20.29Z"/><path class="cls-1" d="M1248.16,139.98c-7.08,0-13.28-1.48-18.59-4.42-5.31-2.95-9.46-7.08-12.46-12.39-2.99-5.31-4.49-11.41-4.49-18.31s1.45-13.52,4.36-19.06c2.9-5.54,7.06-9.87,12.46-13,5.4-3.13,11.59-4.7,18.59-4.7s13.05,1.48,18.18,4.42c5.13,2.95,9.17,7.01,12.12,12.19,2.95,5.17,4.43,11.12,4.43,17.84,0,.91-.02,1.93-.07,3.06-.05,1.14-.16,2.29-.34,3.47h-55.28v-11.85h35.27c-.36-3.9-1.84-7.01-4.43-9.33-2.59-2.31-5.83-3.47-9.73-3.47-2.91,0-5.56.66-7.97,1.98-2.41,1.32-4.27,3.36-5.58,6.13-1.32,2.77-1.97,6.29-1.97,10.55v3.95c0,3.18.61,6.01,1.84,8.51,1.23,2.5,3,4.45,5.31,5.86,2.32,1.41,5.01,2.11,8.1,2.11s5.63-.63,7.62-1.91c2-1.27,3.49-2.81,4.49-4.63h20.83c-1.36,4.27-3.56,8.15-6.6,11.64-3.04,3.5-6.79,6.26-11.23,8.3-4.45,2.04-9.4,3.06-14.84,3.06Z"/></svg>